<svg width="93" height="126" viewBox="0 0 93 126" fill="none" xmlns="http://www.w3.org/2000/svg">
<path d="M32.4149 78.7849C28.386 78.7849 24.6448 78.0785 21.1914 76.6657C17.738 75.253 14.7031 73.2908 12.0869 70.7792C9.47071 68.2677 7.43006 65.3113 5.96498 61.9103C4.55222 58.4569 3.84584 54.7157 3.84584 50.6867C3.84584 46.6577 4.55222 42.9427 5.96498 39.5416C7.43006 36.0882 9.41838 33.1057 11.93 30.5941C14.4938 28.0826 17.4763 26.1466 20.8774 24.7861C24.3308 23.3734 28.0197 22.667 31.944 22.667C34.7172 22.667 37.4381 23.0594 40.1066 23.8443C42.8275 24.6292 45.2867 25.728 47.4844 27.1407C49.682 28.5535 51.461 30.1494 52.8214 31.9284L48.7401 36.0882C47.2751 34.5708 45.6268 33.2627 43.7955 32.1639C41.9641 31.0651 40.0281 30.2017 37.9875 29.5738C35.9992 28.9459 34.0108 28.632 32.0225 28.632C28.9354 28.632 26.0575 29.1814 23.389 30.2802C20.7728 31.379 18.4705 32.9226 16.4822 34.9109C14.4938 36.8469 12.9503 39.1753 11.8515 41.8962C10.7527 44.5647 10.2033 47.4949 10.2033 50.6867C10.2033 53.7738 10.7527 56.6778 11.8515 59.3987C13.0026 62.0672 14.5985 64.4218 16.6391 66.4625C18.7321 68.4508 21.139 69.9944 23.8599 71.0932C26.5808 72.192 29.5109 72.7414 32.6504 72.7414C35.1096 72.7414 37.4119 72.3751 39.5572 71.6426C41.7548 70.91 43.6647 69.8897 45.2867 68.5816C46.9088 67.2212 48.1646 65.6515 49.0541 63.8724C49.9436 62.0934 50.3884 60.1836 50.3884 58.1429V55.3959L51.6441 56.9656H32.3365V50.9221H56.5103C56.5626 51.3407 56.615 51.8378 56.6673 52.4134C56.7196 52.9366 56.7458 53.486 56.7458 54.0616C56.7981 54.5848 56.8243 55.0819 56.8243 55.5529C56.8243 58.9539 56.1964 62.0934 54.9406 64.9712C53.6848 67.7968 51.9319 70.256 49.682 72.349C47.4844 74.3896 44.9205 75.9855 41.9903 77.1366C39.0601 78.2355 35.8683 78.7849 32.4149 78.7849Z" fill="white"/>
<path d="M33.9622 106L54.9966 51.0594H61.9819L82.8593 106H76.1879L62.7667 70.3671C62.4005 69.3729 61.9819 68.2218 61.5109 66.9137C61.0923 65.5533 60.6214 64.1667 60.0982 62.7539C59.6273 61.2888 59.1563 59.8761 58.6854 58.5156C58.2668 57.1552 57.8744 55.9518 57.5081 54.9053H59.0779C58.6593 56.2134 58.2145 57.5476 57.7436 58.9081C57.325 60.2162 56.8802 61.5505 56.4093 62.9109C55.9384 64.219 55.4675 65.5271 54.9966 66.8352C54.5256 68.1433 54.0547 69.4514 53.5838 70.7595L40.2411 106H33.9622ZM42.9096 90.8521L45.1857 84.8871H71.1648L73.6764 90.8521H42.9096Z" fill="white"/>
</svg>
